<?xml version="1.0" standalone="no"?>
<!DOCTYPE svg PUBLIC "-//W3C//DTD SVG 1.1//EN" "http://www.w3.org/Graphics/SVG/1.1/DTD/svg11.dtd" >
<!--
2013-9-30: Created.
-->
<svg>
<metadata>
Created by iconfont
</metadata>
<defs>

<font id="iconfont" horiz-adv-x="1024" >
  <font-face
    font-family="iconfont"
    font-weight="500"
    font-stretch="normal"
    units-per-em="1024"
    ascent="896"
    descent="-128"
  />
    <missing-glyph />
    
    <glyph glyph-name="add" unicode="&#59074;" d="M983.04 424.96 552.96 424.96 552.96 855.04C552.96 877.653333 534.6304 896 512 896s-40.96-18.346667-40.96-40.96l0-430.08L40.96 424.96C18.3296 424.96 0 406.6304 0 384s18.3296-40.96 40.96-40.96l430.08 0 0-430.08c0-22.6304 18.346667-40.96 40.96-40.96s40.96 18.346667 40.96 40.96L552.96 343.04l430.08 0c22.6304 0 40.96 18.346667 40.96 40.96S1005.6704 424.96 983.04 424.96z"  horiz-adv-x="1024" />

    
    <glyph glyph-name="jinggao" unicode="&#59051;" d="M1011.982 53.482 606.673 755.435c-49.575 85.822-130.595 85.822-180.157 0L21.205 53.482c-49.562-85.91-9.015-155.99 90.04-155.99l810.693 0C1020.997-102.507 1061.502-32.423 1011.982 53.482zM460.924 556.263c14.565 15.747 33.082 23.622 55.665 23.622 22.595 0 41.095-7.792 55.675-23.307 14.485-15.55 21.725-34.997 21.725-58.382 0-20.12-30.235-168.07-40.32-275.704l-72.825 0c-8.845 107.635-41.652 255.584-41.652 275.704C439.194 521.226 446.446 540.593 460.924 556.263zM571.244 44.462c-15.32-14.92-33.55-22.355-54.65-22.355-21.095 0-39.33 7.435-54.647 22.355-15.275 14.885-22.867 32.915-22.867 54.09 0 21.065 7.592 39.29 22.867 54.565 15.317 15.28 33.552 22.92 54.647 22.92 21.1 0 39.33-7.64 54.65-22.92 15.265-15.275 22.875-33.5 22.875-54.565C594.119 77.377 586.509 59.347 571.244 44.462z"  horiz-adv-x="1034" />

    
    <glyph glyph-name="bianji1" unicode="&#58885;" d="M531.8 258.6l-205-101.4c-23.1-10.7-41.6 10-33 33.1l101.3 205.1c1.7 8.8 5.1 17.4 12 24.3l283.5 283.7H246.4c-36.4 0-66-29.5-66-66v-527.9c0-36.4 29.5-66 66-66h527.9c36.4 0 66 29.5 66 66V554.9L556.1 270.6c-6.9-6.9-15.4-10.3-24.3-12z m-193.2-40c-5.4-10.8 5-21.9 16.5-16.5l126.6 76.7-66.5 66.5-76.6-126.7zM821 601.9l19.3 19.3v16.2c0 36.4-29.5 66-66 66h-17.5l-17.4-17.5 81.6-84zM440.2 386.5c8.8-8.8 51.7-51.8 82.8-82.8l264.9 265-83.4 82.3-264.3-264.5z m480.1 314.8l-82.8 82.8c-18.3 18.3-47.9 18.3-66.2 0l-80.7-80.8h66.2l31 31.1c9.1 9.1 24 9.1 33.1 0l49.7-49.7c9.1-9.1 9.1-24 0-33.1l-30.4-30.4v-66.3l80 80.1c18.4 18.3 18.4 48 0.1 66.3z"  horiz-adv-x="1024" />

    
    <glyph glyph-name="piliangshanchu" unicode="&#58904;" d="M1194.297135 88.090606a41284.050633 41284.050633 0 0 0-105.742838 105.060627c45.708195 45.537642 87.920053 87.664224 105.742838 105.657561a33.087275 33.087275 0 0 1 0 46.560959 32.660893 32.660893 0 0 1-46.219853 0c-17.908061-18.078614-60.205197-60.290473-106.083944-105.913391-45.793471 45.622918-88.090606 87.834777-105.998668 105.913391a32.660893 32.660893 0 0 1-46.30513 0 33.087275 33.087275 0 0 1 0-46.560959l105.828115-105.742838c-45.622918-45.367089-87.664224-87.237841-105.742838-104.890073a32.405063 32.405063 0 0 1 0-46.219854c12.962025-12.706196 33.854763-12.706196 46.816789 0 17.908061 17.737508 59.949367 59.522985 105.401732 104.890074a59856.415723 59856.415723 0 0 1 105.572285-104.890074c12.876749-12.706196 33.769487-12.706196 46.731512 0a32.405063 32.405063 0 0 1 0 46.134577zM407.02465 565.724184h298.552965V495.200533h-298.467688zM407.02465 425.273817h236.045303v-70.52365H407.02465v70.608927zM407.02465 289.769487h149.233844v-70.523651h-149.233844zM1043.187209 513.790806c-177.716189 0-322.345103-143.946702-322.345104-320.895403 0-62.763491 18.504997-121.177881 49.886742-170.723518H344.090606V632.410393h599.493671v-94.145236h86.640906V718.710193H774.31046V895.232512H1.364424v-782.838108h256.085276v-176.522319h572.972685v16.628914a321.492338 321.492338 0 0 1 212.764824-80.500999c177.801466 0 322.345103 143.946702 322.345103 320.895403s-144.543638 320.895403-322.345103 320.895403zM257.108594 199.546969H88.00533V809.017988h598.640906v-90.137242H257.193871v-519.419054z m784.884744-248.069287a243.037975 243.037975 0 0 0-243.208528 242.185209 243.037975 243.037975 0 0 0 243.208528 242.18521 243.037975 243.037975 0 0 0 243.293804-242.18521 243.037975 243.037975 0 0 0-243.293804-242.185209z"  horiz-adv-x="1366" />

    
    <glyph glyph-name="icon_shanchu-mian" unicode="&#58934;" d="M1009.524364 739.444364A36.235636 36.235636 0 0 1 977.454545 756.782545V756.363636H721.454545V849.291636c0 12.962909-5.166545 24.273455-14.289454 33.512728-9.076364 9.076364-21.364364 13.195636-34.280727 13.195636H347.392c-12.846545 0-23.133091-4.119273-32.256-13.195636l-0.069818-0.116364c-0.116364-0.116364 0.581818-0.186182 0.488727-0.302545-8.797091-8.797091-13.009455-20.689455-13.009454-33.093819V756.363636H45.172364C24.576 756.363636 7.819636 742.050909 7.819636 721.454545c0-13.009455 6.702545-22.877091 16.802909-28.858181 5.818182-4.119273 12.869818-6.050909 20.549819-6.050909h69.306181L159.418182-79.476364c0.791273-12.613818 6.330182-25.949091 15.569454-34.443636 8.773818-8.750545 20.433455-14.08 32.907637-14.08H812.450909c12.869818 0 24.971636 5.469091 34.048 14.568727 9.053091 9.053091 14.196364 22.644364 14.103273 35.328L905.565091 686.545455h69.306182c0.698182 0 1.373091-0.488727 2.071272-0.488728 0.418909-0.279273 0.814545-0.884364 1.233455-0.884363 12.8 0 24.506182 4.840727 31.255273 15.732363a36.235636 36.235636 0 0 1 0.093091 38.539637zM418.909091 69.818182a34.909091 34.909091 0 1 0-69.818182 0v488.727273a34.909091 34.909091 0 1 0 69.818182 0v-488.727273z m232.727273 0a34.909091 34.909091 0 1 0-69.818182 0v488.727273a34.909091 34.909091 0 1 0 69.818182 0v-488.727273zM651.636364 756.363636H372.363636V826.181818h279.272728v-69.818182z"  horiz-adv-x="1024" />

    
    <glyph glyph-name="xinzengfuwuqi" unicode="&#59026;" d="M641.6 227.4v77.8c0 28.6 23.2 51.9 51.9 51.9s51.9-23.2 51.9-51.9v-77.8h77.8c28.6 0 51.9-23.2 51.9-51.9 0-28.6-23.2-51.9-51.9-51.9h-77.8v-77.8c0-28.6-23.2-51.9-51.9-51.9s-51.9 23.2-51.9 51.9v77.8h-77.8c-28.6 0-51.9 23.2-51.9 51.9 0 28.6 23.2 51.9 51.9 51.9h77.8zM875 383H503.3c-28.6 0-51.9-23.2-51.9-51.9v-51.9H200.9c-28.6 0-51.9 23.2-51.9 51.9V434.9c0 28.6 23.2 51.9 51.9 51.9h622.3c28.6 0 51.9-23.2 51.9-51.9V383zM451.5 175.6v-207.4H200.9c-28.6 0-51.9 23.2-51.9 51.9V123.7c0 28.6 23.2 51.9 51.9 51.9h250.6zM200.9 797.8h622.3c28.6 0 51.9-23.2 51.9-51.9v-103.7c0-28.6-23.2-51.9-51.9-51.9H200.9c-28.6 0-51.9 23.2-51.9 51.9V746c0 28.6 23.2 51.8 51.9 51.8zM321.8 746c-28.6 0-51.9-23.2-51.9-51.9s23.2-51.9 51.9-51.9c28.6 0 51.9 23.2 51.9 51.9S350.5 746 321.8 746z m0-311.1c-28.6 0-51.9-23.2-51.9-51.9s23.2-51.9 51.9-51.9c28.6 0 51.9 23.2 51.9 51.9s-23.2 51.9-51.9 51.9z m0-311.2c-28.6 0-51.9-23.2-51.9-51.9 0-28.6 23.2-51.9 51.9-51.9 28.6 0 51.9 23.2 51.9 51.9s-23.2 51.9-51.9 51.9z"  horiz-adv-x="1024" />

    
    <glyph glyph-name="jinggao1" unicode="&#58896;" d="M514 781.5c-219.8 0-398.7-178.8-398.7-398.7 0-219.8 178.8-398.7 398.7-398.7S912.7 163 912.7 382.8c0 219.8-178.9 398.7-398.7 398.7z m0-754.6c-196.3 0-355.9 159.7-355.9 355.9 0 196.3 159.7 355.9 355.9 355.9S869.9 579 869.9 382.8c0-196.3-159.6-355.9-355.9-355.9zM514 234.7c-46.4 0-84-37.6-84-84s37.6-84 84-84 84 37.6 84 84-37.6 84-84 84z m0-125.3c-22.8 0-41.3 18.5-41.3 41.3 0 22.8 18.5 41.3 41.3 41.3s41.3-18.5 41.3-41.3c0-22.8-18.5-41.3-41.3-41.3zM514 698.9c-55.8 0-100.9-45.2-101-100.9 0-55.7 44.9-317.3 100.9-317.3 56 0 100.9 261.6 100.9 317.3 0.1 55.7-45.1 100.9-100.8 100.9zM548.9 449c-13.6-59.2-26.2-92.1-34.9-109.8-8.7 17.7-21.2 50.5-34.9 109.8-15.2 66.1-23.3 129-23.3 149 0 32.1 26.1 58.2 58.2 58.2s58.2-26.1 58.2-58.2c0-20-8.1-82.9-23.3-149z"  horiz-adv-x="1024" />

    
    <glyph glyph-name="tabledisable-copy" unicode="&#58910;" d="M149.937502 22.047213000000056a511.981715 511.981715 0 1 0 724.088426 0 511.981715 511.981715 0 0 0-724.088426 0z m103.420307 620.594978a365.701225 365.701225 0 0 1-46.517196-460.271561l506.788757 506.788757a365.701225 365.701225 0 0 1-460.271561-46.517196z m563.691868-56.97625l-506.715618-506.715618a365.701225 365.701225 0 0 1 506.715618 506.715618z"  horiz-adv-x="1024" />

    
    <glyph glyph-name="icon_shanchu-mian-copy" unicode="&#59114;" d="M1009.524364 739.444364A36.235636 36.235636 0 0 1 977.454545 756.782545V756.363636H721.454545V849.291636c0 12.962909-5.166545 24.273455-14.289454 33.512728-9.076364 9.076364-21.364364 13.195636-34.280727 13.195636H347.392c-12.846545 0-23.133091-4.119273-32.256-13.195636l-0.069818-0.116364c-0.116364-0.116364 0.581818-0.186182 0.488727-0.302545-8.797091-8.797091-13.009455-20.689455-13.009454-33.093819V756.363636H45.172364C24.576 756.363636 7.819636 742.050909 7.819636 721.454545c0-13.009455 6.702545-22.877091 16.802909-28.858181 5.818182-4.119273 12.869818-6.050909 20.549819-6.050909h69.306181L159.418182-79.47636399999999c0.791273-12.613818 6.330182-25.949091 15.569454-34.443636 8.773818-8.750545 20.433455-14.08 32.907637-14.08H812.450909c12.869818 0 24.971636 5.469091 34.048 14.568727 9.053091 9.053091 14.196364 22.644364 14.103273 35.328L905.565091 686.545455h69.306182c0.698182 0 1.373091-0.488727 2.071272-0.488728 0.418909-0.279273 0.814545-0.884364 1.233455-0.884363 12.8 0 24.506182 4.840727 31.255273 15.732363a36.235636 36.235636 0 0 1 0.093091 38.539637zM418.909091 69.81818199999998a34.909091 34.909091 0 1 0-69.818182 0v488.727273a34.909091 34.909091 0 1 0 69.818182 0v-488.727273z m232.727273 0a34.909091 34.909091 0 1 0-69.818182 0v488.727273a34.909091 34.909091 0 1 0 69.818182 0v-488.727273zM651.636364 756.363636H372.363636V826.181818h279.272728v-69.818182z"  horiz-adv-x="1024" />

    
    <glyph glyph-name="bianji1-copy" unicode="&#59115;" d="M531.8 258.6l-205-101.4c-23.1-10.7-41.6 10-33 33.1l101.3 205.1c1.7 8.8 5.1 17.4 12 24.3l283.5 283.7H246.4c-36.4 0-66-29.5-66-66v-527.9c0-36.4 29.5-66 66-66h527.9c36.4 0 66 29.5 66 66V554.9L556.1 270.6c-6.9-6.9-15.4-10.3-24.3-12z m-193.2-40c-5.4-10.8 5-21.9 16.5-16.5l126.6 76.7-66.5 66.5-76.6-126.7zM821 601.9l19.3 19.3v16.2c0 36.4-29.5 66-66 66h-17.5l-17.4-17.5 81.6-84zM440.2 386.5c8.8-8.8 51.7-51.8 82.8-82.8l264.9 265-83.4 82.3-264.3-264.5z m480.1 314.8l-82.8 82.8c-18.3 18.3-47.9 18.3-66.2 0l-80.7-80.8h66.2l31 31.1c9.1 9.1 24 9.1 33.1 0l49.7-49.7c9.1-9.1 9.1-24 0-33.1l-30.4-30.4v-66.3l80 80.1c18.4 18.3 18.4 48 0.1 66.3z"  horiz-adv-x="1024" />

    
    <glyph glyph-name="xinzengfuwuqi-copy" unicode="&#59116;" d="M641.6 227.39999999999998v77.8c0 28.6 23.2 51.9 51.9 51.9s51.9-23.2 51.9-51.9v-77.8h77.8c28.6 0 51.9-23.2 51.9-51.9 0-28.6-23.2-51.9-51.9-51.9h-77.8v-77.8c0-28.6-23.2-51.9-51.9-51.9s-51.9 23.2-51.9 51.9v77.8h-77.8c-28.6 0-51.9 23.2-51.9 51.9 0 28.6 23.2 51.9 51.9 51.9h77.8zM875 383H503.3c-28.6 0-51.9-23.2-51.9-51.9v-51.9H200.9c-28.6 0-51.9 23.2-51.9 51.9V434.9c0 28.6 23.2 51.9 51.9 51.9h622.3c28.6 0 51.9-23.2 51.9-51.9V383zM451.5 175.60000000000002v-207.4H200.9c-28.6 0-51.9 23.2-51.9 51.9V123.70000000000005c0 28.6 23.2 51.9 51.9 51.9h250.6zM200.9 797.8h622.3c28.6 0 51.9-23.2 51.9-51.9v-103.7c0-28.6-23.2-51.9-51.9-51.9H200.9c-28.6 0-51.9 23.2-51.9 51.9V746c0 28.6 23.2 51.8 51.9 51.8zM321.8 746c-28.6 0-51.9-23.2-51.9-51.9s23.2-51.9 51.9-51.9c28.6 0 51.9 23.2 51.9 51.9S350.5 746 321.8 746z m0-311.1c-28.6 0-51.9-23.2-51.9-51.9s23.2-51.9 51.9-51.9c28.6 0 51.9 23.2 51.9 51.9s-23.2 51.9-51.9 51.9z m0-311.2c-28.6 0-51.9-23.2-51.9-51.9 0-28.6 23.2-51.9 51.9-51.9 28.6 0 51.9 23.2 51.9 51.9s-23.2 51.9-51.9 51.9z"  horiz-adv-x="1024" />

    
    <glyph glyph-name="piliangshanchu-copy" unicode="&#59117;" d="M1194.297135 88.09060599999998a41284.050633 41284.050633 0 0 0-105.742838 105.060627c45.708195 45.537642 87.920053 87.664224 105.742838 105.657561a33.087275 33.087275 0 0 1 0 46.560959 32.660893 32.660893 0 0 1-46.219853 0c-17.908061-18.078614-60.205197-60.290473-106.083944-105.913391-45.793471 45.622918-88.090606 87.834777-105.998668 105.913391a32.660893 32.660893 0 0 1-46.30513 0 33.087275 33.087275 0 0 1 0-46.560959l105.828115-105.742838c-45.622918-45.367089-87.664224-87.237841-105.742838-104.890073a32.405063 32.405063 0 0 1 0-46.219854c12.962025-12.706196 33.854763-12.706196 46.816789 0 17.908061 17.737508 59.949367 59.522985 105.401732 104.890074a59856.415723 59856.415723 0 0 1 105.572285-104.890074c12.876749-12.706196 33.769487-12.706196 46.731512 0a32.405063 32.405063 0 0 1 0 46.134577zM407.02465 565.7241839999999h298.552965V495.200533h-298.467688zM407.02465 425.273817h236.045303v-70.52365H407.02465v70.608927zM407.02465 289.769487h149.233844v-70.523651h-149.233844zM1043.187209 513.790806c-177.716189 0-322.345103-143.946702-322.345104-320.895403 0-62.763491 18.504997-121.177881 49.886742-170.723518H344.090606V632.410393h599.493671v-94.145236h86.640906V718.710193H774.31046V895.232512H1.364424v-782.838108h256.085276v-176.522319h572.972685v16.628914a321.492338 321.492338 0 0 1 212.764824-80.500999c177.801466 0 322.345103 143.946702 322.345103 320.895403s-144.543638 320.895403-322.345103 320.895403zM257.108594 199.546969H88.00533V809.0179880000001h598.640906v-90.137242H257.193871v-519.419054z m784.884744-248.069287a243.037975 243.037975 0 0 0-243.208528 242.185209 243.037975 243.037975 0 0 0 243.208528 242.18521 243.037975 243.037975 0 0 0 243.293804-242.18521 243.037975 243.037975 0 0 0-243.293804-242.185209z"  horiz-adv-x="1366" />

    
    <glyph glyph-name="tabledisable-copy-copy" unicode="&#59118;" d="M149.937502 22.047213000000056a511.981715 511.981715 0 1 0 724.088426 0 511.981715 511.981715 0 0 0-724.088426 0z m103.420307 620.594978a365.701225 365.701225 0 0 1-46.517196-460.271561l506.788757 506.788757a365.701225 365.701225 0 0 1-460.271561-46.517196z m563.691868-56.97625l-506.715618-506.715618a365.701225 365.701225 0 0 1 506.715618 506.715618z"  horiz-adv-x="1024" />

    
    <glyph glyph-name="jinggao-copy" unicode="&#59119;" d="M1011.982 53.48199999999997L606.673 755.435c-49.575 85.822-130.595 85.822-180.157 0L21.205 53.48199999999997c-49.562-85.91-9.015-155.99 90.04-155.99l810.693 0C1020.997-102.50699999999995 1061.502-32.423 1011.982 53.48199999999997zM460.924 556.2629999999999c14.565 15.747 33.082 23.622 55.665 23.622 22.595 0 41.095-7.792 55.675-23.307 14.485-15.55 21.725-34.997 21.725-58.382 0-20.12-30.235-168.07-40.32-275.704l-72.825 0c-8.845 107.635-41.652 255.584-41.652 275.704C439.194 521.226 446.446 540.5930000000001 460.924 556.2629999999999zM571.244 44.46199999999999c-15.32-14.92-33.55-22.355-54.65-22.355-21.095 0-39.33 7.435-54.647 22.355-15.275 14.885-22.867 32.915-22.867 54.09 0 21.065 7.592 39.29 22.867 54.565 15.317 15.28 33.552 22.92 54.647 22.92 21.1 0 39.33-7.64 54.65-22.92 15.265-15.275 22.875-33.5 22.875-54.565C594.119 77.37699999999995 586.509 59.34699999999998 571.244 44.46199999999999z"  horiz-adv-x="1034" />

    
    <glyph glyph-name="jinggao1-copy" unicode="&#59121;" d="M514 781.5c-219.8 0-398.7-178.8-398.7-398.7 0-219.8 178.8-398.7 398.7-398.7S912.7 163 912.7 382.79999999999995c0 219.8-178.9 398.7-398.7 398.7z m0-754.6c-196.3 0-355.9 159.7-355.9 355.9 0 196.3 159.7 355.9 355.9 355.9S869.9 579 869.9 382.79999999999995c0-196.3-159.6-355.9-355.9-355.9zM514 234.70000000000005c-46.4 0-84-37.6-84-84s37.6-84 84-84 84 37.6 84 84-37.6 84-84 84z m0-125.3c-22.8 0-41.3 18.5-41.3 41.3 0 22.8 18.5 41.3 41.3 41.3s41.3-18.5 41.3-41.3c0-22.8-18.5-41.3-41.3-41.3zM514 698.9c-55.8 0-100.9-45.2-101-100.9 0-55.7 44.9-317.3 100.9-317.3 56 0 100.9 261.6 100.9 317.3 0.1 55.7-45.1 100.9-100.8 100.9zM548.9 449c-13.6-59.2-26.2-92.1-34.9-109.8-8.7 17.7-21.2 50.5-34.9 109.8-15.2 66.1-23.3 129-23.3 149 0 32.1 26.1 58.2 58.2 58.2s58.2-26.1 58.2-58.2c0-20-8.1-82.9-23.3-149z"  horiz-adv-x="1024" />

    
    <glyph glyph-name="warn" unicode="&#59171;" d="M170.666667 426.666667a341.333333 341.333333 0 1 0 682.666666 0v-256a42.666667 42.666667 0 1 0-85.333333 0v256a256 256 0 0 1-512 0v-256a42.666667 42.666667 0 1 0-85.333333 0v256zM512 853.333333a42.666667 42.666667 0 0 0 42.666667-42.666666v-85.333334a42.666667 42.666667 0 0 0-85.333334 0V810.666667a42.666667 42.666667 0 0 0 42.666667 42.666666zM418.730667 62.634667a42.666667 42.666667 0 0 0 51.925333-30.677334 42.666667 42.666667 0 0 1 82.688 0 42.666667 42.666667 0 1 0 82.602667-21.248 128 128 0 0 0-247.893334 0 42.666667 42.666667 0 0 0 30.677334 51.925334zM85.333333 149.333333a42.666667 42.666667 0 0 0 42.666667 42.666667h768a42.666667 42.666667 0 1 0 0-85.333333H128a42.666667 42.666667 0 0 0-42.666667 42.666666z"  horiz-adv-x="1024" />

    
    <glyph glyph-name="shousuocaidan" unicode="&#58912;" d="M918.8 688H106.5c-17.7 0-32 14.3-32 32s14.3 32 32 32h812.3c17.7 0 32-14.3 32-32s-14.4-32-32-32zM918.8 352.70000000000005H328.2c-17.7 0-32 14.3-32 32s14.3 32 32 32h590.6c17.7 0 32-14.3 32-32s-14.4-32-32-32zM917.5 16H105.2c-17.7 0-32 14.3-32 32s14.3 32 32 32h812.3c17.7 0 32-14.3 32-32s-14.3-32-32-32zM245.6 210.70000000000005c-8.2 0-16.4 3.1-22.6 9.4L85.3 357.79999999999995c-6 6-9.4 14.1-9.4 22.6 0 8.5 3.4 16.6 9.4 22.6l146.4 146.4c12.5 12.5 32.8 12.5 45.3 0s12.5-32.8 0-45.3L153.2 380.4l115.1-115.1c12.5-12.5 12.5-32.8 0-45.3-6.3-6.2-14.5-9.3-22.7-9.3z"  horiz-adv-x="1024" />

    
    <glyph glyph-name="shousuocaidan-copy" unicode="&#58955;" d="M105.2 80L917.5 80c17.7 0 32-14.3 32-32s-14.3-32-32-32l-812.3 0c-17.7 0-32 14.3-32 32.00000001s14.4 32 32 31.99999999zM105.2 415.3L695.8 415.3c17.7 0 32-14.3 32-32s-14.3-32-32-32l-590.6 0c-17.7 0-32 14.3-32 32s14.4 32 32 32zM106.5 752L918.8 752c17.7 0 32-14.3 32-32.00000001s-14.3-32-32-31.99999999l-812.3 0c-17.7 0-32 14.3-32 32s14.3 32 32 32zM778.4 557.3c8.20000001 0 16.4-3.1 22.6-9.4L938.7 410.2c6-6 9.4-14.1 9.4-22.6 0-8.5-3.4-16.6-9.4-22.6l-146.4-146.4c-12.5-12.5-32.8-12.5-45.3 0s-12.5 32.8 0 45.3L870.8 387.6l-115.1 115.1c-12.5 12.5-12.5 32.8 0 45.3 6.3 6.2 14.5 9.3 22.7 9.3z"  horiz-adv-x="1024" />

    
    <glyph glyph-name="nav_lixianjieshou" unicode="&#58903;" d="M957.567701 601.983772a697.791782 697.791782 0 0 1-891.167722 0L0 718.591735a827.519741 827.519741 0 0 0 1023.99968 0zM895.03972 492.799806l-65.151979-114.367964a446.52786 446.52786 0 0 1-635.807802 0l-65.151979 114.399964a572.511821 572.511821 0 0 0 766.11176-0.032zM335.999895 371.199844l183.071943-162.239949 183.071943 162.239949 98.527969-87.391973L617.599807 121.599922l183.007943-162.207949L702.015781-128l-183.071943 162.239949L335.999895-128l-98.527969 87.391973L420.479869 121.599922l-183.007943 162.207949z"  horiz-adv-x="1024" />

    
    <glyph glyph-name="nav_zaixianjieshou" unicode="&#58908;" d="M957.4977 602.178793a698.084077 698.084077 0 0 1-891.068357 0L0 718.686133a827.838886 827.838886 0 0 0 1023.959042 0zM895.228191 492.775169l-65.181393-114.363425a446.99012 446.99012 0 0 1-636.166553 0l-65.181393 114.395424a573.129075 573.129075 0 0 0 766.529339-0.031999z m-128.346866-225.174993l-62.077517-108.795648a234.166633 234.166633 0 0 1-385.74457 0l-62.077517 108.795648a350.833967 350.833967 0 0 0 509.931602 0.159994zM511.979521 127.98976a127.99488 127.99488 0 1 0-127.99488-127.99488 127.99488 127.99488 0 0 0 127.99488 127.99488z"  horiz-adv-x="1024" />

    
    <glyph glyph-name="lixianim" unicode="&#58890;" d="M511.999488 750.254727c-248.678712 0-450.273176-201.585181-450.273176-450.254727s201.594464-450.254727 450.273176-450.254727c248.678712 0 450.273176 201.585181 450.273176 450.254727S760.6782 750.254727 511.999488 750.254727zM705.974102 171.753127l-65.770584-65.73105L512.022002 234.24439 383.770898 106.021054l-65.746024 65.73105 128.20403 128.246873L318.024874 428.223337l65.746024 65.75561 128.22859-128.223337 128.20403 128.223337 65.770584-65.75561L577.745512 300 705.974102 171.753127z"  horiz-adv-x="1024" />

    
    <glyph glyph-name="data2" unicode="&#59128;" d="M512 896c-215.808 0-448-65.056-448-208l0-608c0-142.88 232.192-208 448-208s448 65.12 448 208l0 608c0 142.944-232.256 208-448 208zM896 80c0-79.488-171.936-144-384-144-212.096 0-384 64.512-384 144l0 119.552c66.112-68.128 225.6-103.552 384-103.552s317.888 35.424 384 103.552l0-119.552zM896 272l-0.128 0c0-0.32 0.128-0.672 0.128-0.992 0-79.008-171.936-143.008-384-143.008s-384 64-384 143.008c0 0.32 0.128 0.672 0.128 0.992l-0.128 0 0 119.552c66.112-68.128 225.6-103.552 384-103.552s317.888 35.424 384 103.552l0-119.552zM896 464l-0.128 0c0-0.32 0.128-0.672 0.128-0.992 0-79.008-171.936-143.008-384-143.008s-384 64-384 143.008c0 0.32 0.128 0.672 0.128 0.992l-0.128 0 0 109.952c83.872-63.904 237.6-93.952 384-93.952s300.128 30.048 384 93.952l0-109.952zM512 544c-212.096 0-384 64.512-384 144 0 79.552 171.904 144 384 144 212.064 0 384-64.448 384-144 0-79.488-171.936-144-384-144zM768 64c0 17.664 14.336 32 32 32s32-14.336 32-32c0-17.664-14.336-32-32-32s-32 14.336-32 32zM768 256c0 17.664 14.336 32 32 32s32-14.336 32-32c0-17.664-14.336-32-32-32s-32 14.336-32 32zM768 448c0 17.664 14.336 32 32 32s32-14.336 32-32c0-17.664-14.336-32-32-32s-32 14.336-32 32z"  horiz-adv-x="1024" />

    
    <glyph glyph-name="lixian" unicode="&#59270;" d="M744.066403 493.933785l133.080971 64.10297 44.36237-45.328371-133.087111-64.10911L744.066403 493.933785zM655.353942 584.602807l177.443341 181.325765 44.350091-45.328371L699.704033 539.262156 655.353942 584.602807zM566.636365 675.25955l62.727647 136.016837 44.36851-45.347814-62.753229-135.997394L566.636365 675.25955zM633.918747 111.368716l35.18229-42.852994c25.440415-25.926486 66.476017-25.798573 91.711771 0.352017l68.849064 70.826092c25.235754 26.086122 25.037233 68.529793-0.37146 94.328365l-35.260062 42.865273c-18.007119 18.333554-43.933605 27.711132-66.578348 19.887956l-71.433936 73.960479c50.560536 52.185546 132.837424 52.42193 183.596482 0.594541l81.34261-89.8821c50.823526-51.935859 51.072189-136.343271 0.531096-188.593286L807.069319-25.460626C756.585531-77.525422 674.352645-77.82525 623.453395-25.946696l-81.317027 89.889263c-50.759057 52.000328-50.989301 136.343271-0.588401 188.522678l71.65804-72.496128C607.333252 157.669228 616.730273 128.927627 633.918747 111.368716zM411.68427 591.601198c7.228635 22.785959-1.63729 48.885384-19.280112 66.910922l-26.444279 43.358507c-25.113981 25.497721-65.420989 25.37697-90.182952-0.306992l-67.449181-69.668733c-24.794709-25.670659-24.685215-66.969251 0.261966-92.524277l26.444279-43.428092 52.863998-37.485753c16.765849-17.086144-8.546653 11.034311 12.800537 17.047258l69.75162-71.606875c-49.621141-51.284013-130.297578-51.514257-180.231851-0.537236l-71.606875 89.479941c-50.01716 50.977022-50.215682 133.822868-0.556679 185.036273L230.358505 794.101215c49.710169 51.16224 130.451074 51.520397 180.264597 0.601704l71.792093-89.651856c49.863664-50.861388 50.036603-133.829008 0.460488-184.997388L411.68427 591.601198zM242.205321 275.045519l-133.080971-64.10911-44.36237 45.334511 133.087111 64.10911L242.205321 275.045519zM330.917782 196.056514 153.48058 14.711306l-44.35623 45.328371 177.443341 181.345208L330.917782 196.056514zM419.635359 105.381351l-59.58098-136.003534-44.342927 45.334511 59.548234 136.010697L419.635359 105.381351z"  horiz-adv-x="1024" />

    
    <glyph glyph-name="zhandianditu" unicode="&#59023;" d="M827.038443359375 705.2068359375l-15.517089843750004 15.517089843750004c-13.965820312500002 12.413671875-26.3794921875 23.27607421875-41.89746093750001 32.586328125-48.10253906249999 34.13759765625-103.96582031250001 57.413671875-162.93076171875 71.3794921875C586.5213535156249 829.34443359375 566.3486972656249 832.4478515625 544.625650390625 834h-35.68974609375c-9.31025390625 0-20.172656250000003 0-29.48291015625-1.5521484375-20.172656250000003-1.5512695312499998-41.89746093750001-4.6546875-62.068359375000014-9.31025390625-58.9658203125-12.413671875-114.8291015625-35.68974609375-162.931640625-69.82734374999998l-41.89746093750001-32.586328125-21.723046875-21.72392578125C107.03844335937504 613.65556640625 60.486294921875015 500.3794921875 62.03844335937504 380.89658203125c1.5512695312499998-119.48291015625 48.10253906249999-232.75898437499998 135-316.55214843749997l15.517089843750004-15.517089843750004c13.965820312500002-12.413671875 26.3794921875-23.275195312500003 41.89658203125-32.586328125 45-31.034179687500007 94.65468750000001-54.31025390625 147.41367187499998-66.72392578125 20.172656250000003-4.6546875 40.34443359375-9.31025390625 60.51708984375-10.8615234375 17.068359375-1.5521484375 32.586328125-3.10341796875 49.65556640625-3.10341796875h3.1025390624999996c15.517968749999998 0 31.035058593749998 1.5512695312499998 46.5521484375 3.1025390624999996 20.172656250000003 3.104296875 41.89746093750001 6.20771484375 60.51708984375 10.863281249999998 52.758984375 13.964941406249999 102.41455078125 37.241015625 145.86328125 68.2751953125l41.895703125 32.586328125c93.10341796875 83.7931640625 152.068359375 204.82734375 150.51708984375 339.82734375 0 117.931640625-46.55126953125 229.65556640625002-133.4478515625 315z m82.24101562499999-294.82734374999995H687.382876953125c-3.1025390624999996 76.0341796875-10.8615234375 150.51708984375-24.82734375 220.34443359375 38.7931640625 13.965820312500002 74.48291015625001 32.586328125 108.6205078125 55.86240234375 79.13759765625-68.27607421875001 130.3453125-166.0341796875 138.10341796875002-276.20683593750005zM616.003384765625 149.68974609375005c-35.68974609375 7.75810546875-71.37861328125 12.413671875-108.6205078125 12.413671875-34.13759765625 0-68.27607421875001-4.65556640625-100.8615234375-12.413671875-10.863281249999998 66.72392578125-15.517968749999998 136.55126953125003-17.06923828125 207.93164062500003h242.068359375c1.5521484375-71.38037109375001-4.6546875-139.65556640625-15.517089843750004-207.93164062500003z m-201.72392578125002 467.06835937499994c31.034179687500007-7.75810546875 63.620507812499994-10.8615234375 97.758984375-10.8615234375h3.1025390624999996c32.587207031249996 0 63.62138671875 3.10341796875 94.65556640624999 10.862402343749999 12.413671875-66.7248046875 20.172656250000003-135 23.27607421875-206.3794921875h-242.068359375c3.1025390624999996 69.82734374999998 10.8615234375 139.65468749999997 23.275195312500003 206.3794921875z m311.8974609375 102.41455078125a334.3974609375 334.3974609375 0 0 0-74.4837890625-37.24189453125c-7.75810546875 27.931640625000004-15.517089843750004 55.86240234375-23.275195312500003 82.24189453124998 34.13671875-9.31025390625 66.72392578125-24.82822265625 97.75810546875-45zM508.934146484375 782.7931640625h3.1025390624999996c18.62138671875 0 37.24189453125-1.5521484375 54.3111328125-3.10341796875 12.413671875-35.68974609375 23.27607421875-72.931640625 32.586328125-111.72392578125-26.3794921875-6.2068359375-54.31025390625-9.31025390625-83.7931640625-9.31025390625h-3.10341796875c-29.48291015625 0-58.9658203125 3.1025390624999996-86.89746093750001 9.31025390625 9.3111328125 38.7931640625 20.172656250000003 76.0341796875 32.587207031249996 111.72392578125 17.068359375 1.5512695312499998 34.13759765625 3.1025390624999996 51.2068359375 3.1025390624999996zM395.658951171875 764.17265625c-7.758984374999999-26.3794921875-15.517089843750004-54.31025390625-23.27607421875-82.24189453124998a334.3974609375 334.3974609375 0 0 0-74.48291015625001 37.24189453125c31.034179687500007 20.171777343749998 63.62138671875 35.68974609375 97.758984375 45z m-141.20683593750002-77.586328125c34.13759765625-23.27607421875 69.82734374999998-41.89746093750001 108.6205078125-55.86240234375-13.965820312500002-71.3794921875-21.72392578125-145.86152343749998-24.82734375-220.34443359375H114.79654882812497c7.758984374999999 110.17265625 58.9658203125 207.93164062500003 139.65556640625 276.20683593750005zM114.79654882812497 357.6205078124999h221.8974609375c0-76.0341796875 6.20595703125-152.068359375 18.61962890625-223.4478515625-35.6888671875-13.965820312500002-69.82734374999998-31.034179687500007-100.8615234375-52.758984375-80.68974609375 68.27607421875001-131.89746093749997 166.0341796875-139.65556640625 276.20683593750005z m183.10341796875-308.7931640625c20.172656250000003 13.965820312500002 43.44873046875001 24.82822265625 66.7248046875 34.1384765625 4.6546875-24.82822265625 10.8615234375-51.2068359375 18.6205078125-74.48291015625001-31.034179687500007 9.31025390625-58.9658203125 23.27607421875-85.34531249999999 40.34443359375z m217.24189453125-63.620507812499994h-3.10341796875c-23.27607421875 0-46.5521484375 1.5521484375-68.27607421875001 6.2068359375-10.862402343749999 34.1384765625-20.172656250000003 69.82734374999998-26.3794921875 107.068359375 29.48291015625 7.758984374999999 60.51708984375 10.863281249999998 93.10341796875 10.863281249999998h3.10341796875c32.586328125 0 65.17265625-4.65556640625 94.65556640624999-10.863281249999998-7.758984374999999-37.241015625-17.068359375-72.9298828125-26.3794921875-107.068359375-23.27607421875-3.1025390624999996-45-4.6546875-66.72392578125-6.2068359375zM640.830728515625 6.931640625l18.6205078125 74.48291015625001c23.27607421875-9.31025390625 45-20.172656250000003 66.72392578125-34.13759765625-26.3794921875-15.517089843750004-54.31025390625-29.48291015625-85.34443359375-40.345312500000006z m128.7931640625 74.48291015625001c-31.034179687500007 21.72392578125-65.17265625 40.345312500000006-100.86240234375 52.758984375 12.413671875 71.3794921875 18.6205078125 147.41367187499998 18.6205078125 223.4478515625h221.8974609375c-7.758984374999999-110.17265625-58.9658203125-207.93164062500003-139.65556640625-276.20683593750005z"  horiz-adv-x="1024" />

    
    <glyph glyph-name="location" unicode="&#58897;" d="M512.103132 575.879021a106.221743 106.221743 0 1 0-75.507022-31.354611A106.221743 106.221743 0 0 0 512.103132 575.879021m0 63.989002a170.850635 170.850635 0 1 1 120.939214-49.911422A169.570855 169.570855 0 0 1 512.103132 639.868023zM805.172761 771.685367a407.609942 407.609942 0 0 1-586.139257 0 431.285873 431.285873 0 0 1 0-599.576948L512.103132-128l293.069629 300.108419a431.285873 431.285873 0 0 1 0 599.576948z m-44.152411-557.344207l-248.917218-255.956007-248.917217 255.956007a365.377201 365.377201 0 0 0 0 508.712565 346.82039 346.82039 0 0 0 497.834435 0 365.377201 365.377201 0 0 0 0-508.712565z"  horiz-adv-x="1024" />

    
    <glyph glyph-name="gaojingshijian" unicode="&#58899;" d="M990.72 340.992h-126.976v22.016c0 12.288-0.512 24.576-2.048 36.352h128.512c16.384 0 29.184-12.8 29.184-29.184 0.512-15.872-12.288-29.184-28.672-29.184z m-209.408 244.736c-12.8 14.848-26.624 28.672-41.984 41.472l93.696 93.184c11.776 11.264 30.208 11.264 41.984 0 11.776-11.264 11.776-30.208 0-41.472l-93.696-93.184z m24.064-573.952h68.096c16.384 0 29.184-12.8 29.184-29.184 0-15.872-13.312-29.184-29.184-29.184h-721.92c-16.384 0-29.184 12.8-29.184 29.184 0 15.872 13.312 29.184 29.184 29.184H220.16v348.672c0 160.256 131.072 290.304 292.864 290.304s292.864-130.048 292.864-290.304l-0.512-348.672z m-58.368 329.216c0 128.512-104.96 232.448-233.984 232.448-129.536 0-233.984-103.936-233.984-232.448v-329.216h467.968v329.216z m-228.864 123.904c11.264 11.264 30.208 11.264 41.472 0 11.264-11.264 11.264-29.696 0-40.96l-63.488-62.976h104.96c16.384 0 36.864-14.848 39.424-29.184 1.024-7.168 0.512-10.24 0-12.288-3.584-13.824-11.264-20.992-19.456-29.184l-114.688-113.664c-11.776-11.776-31.232-11.776-43.008 0-11.776 11.776-11.776 30.72 0 42.496l89.6 83.968H445.44c-5.632 0-9.216 0.512-15.36 1.536-11.776 1.536-20.48 4.096-27.136 10.24-9.728 14.336-6.144 29.696 5.12 40.96l110.08 109.056z m-34.304 242.688V844.8c0 15.872 13.312 29.184 29.184 29.184 16.384 0 29.184-12.8 29.184-29.184v-137.216c-9.728 1.024-19.456 1.536-29.696 1.536-9.728 0-18.944-0.512-28.672-1.536zM248.832 590.848L154.112 685.056c-11.264 11.264-11.264 29.696 0 40.96s29.696 11.264 41.472 0l95.744-94.72c-15.36-12.288-29.184-25.6-42.496-40.448z m-87.04-227.84v-22.016H34.816c-16.384 0-29.184 12.8-29.184 29.184 0 15.872 13.312 29.184 29.184 29.184H163.84c-1.536-11.776-2.048-24.064-2.048-36.352z"  horiz-adv-x="1024" />

    
    <glyph glyph-name="dian" unicode="&#58929;" d="M788.48 485.888h-112.128c-24.064 0-92.16-11.776-115.2 2.56-4.608 16.384 10.24 46.08 14.336 60.416 11.776 41.472 23.04 82.432 34.816 124.416L660.48 854.016c6.656 23.552-24.064 33.792-36.864 15.872L218.112 313.344c-9.216-12.8 3.584-30.72 17.92-30.72h164.352c11.264 0 54.784 7.168 61.952-3.584 6.656-8.704-6.144-35.84-8.704-45.568-30.72-106.496-60.416-212.992-90.112-319.488-6.656-23.552 24.064-33.792 36.864-15.872l404.992 556.544c9.728 13.312-2.56 31.232-16.896 31.232z"  horiz-adv-x="1024" />

    
    <glyph glyph-name="database" unicode="&#59172;" d="M877.714286 896H146.285714c-20.228571 0-36.571429-16.342857-36.571428-36.571429v-950.857142c0-20.228571 16.342857-36.571429 36.571428-36.571429h731.428572c20.228571 0 36.571429 16.342857 36.571428 36.571429V859.428571c0 20.228571-16.342857 36.571429-36.571428 36.571429z m-685.714286-82.285714h640v-237.714286H192V813.714286z m640-548.571429H192V502.857143h640v-237.714286z m0-310.857143H192V192h640v-237.714286zM274.285714 694.857143a45.714286 45.714286 0 1 1 91.428572 0 45.714286 45.714286 0 1 1-91.428572 0z m0-310.857143a45.714286 45.714286 0 1 1 91.428572 0 45.714286 45.714286 0 1 1-91.428572 0z m0-310.857143a45.714286 45.714286 0 1 1 91.428572 0 45.714286 45.714286 0 1 1-91.428572 0z"  horiz-adv-x="1024" />

    
    <glyph glyph-name="wangguanzhuangtai" unicode="&#59040;" d="M678.4 141.824c38.912 0 70.656 31.744 70.656 70.656 0 38.912-31.744 70.656-70.656 70.656s-70.656-31.744-70.656-70.656 31.744-70.656 70.656-70.656z m-31.232 70.656c0 17.408 14.336 31.232 31.232 31.232 17.408 0 31.232-14.336 31.232-31.232 0-17.408-14.336-31.232-31.232-31.232-17.408-0.512-31.232 13.824-31.232 31.232zM642.048 418.816H375.296m-73.216 0H237.056c-36.864 0-71.68-14.336-97.792-40.448s-40.448-60.928-40.448-97.792v-136.192c0-36.864 14.336-71.68 40.448-97.792s60.928-40.448 97.792-40.448h543.744c36.864 0 71.68 14.336 97.792 40.448 26.112 26.112 40.448 60.928 40.448 97.792v136.192c0 36.864-14.336 71.68-40.96 97.792-26.112 26.112-60.928 40.448-97.792 40.448h-65.536M157.184 283.136c0 35.84 26.112 77.312 61.952 77.312l571.904-3.072c35.84 0 68.608-40.96 68.608-77.312v-136.192c0-35.84-29.184-82.432-65.536-82.432l-571.904 3.072c-35.84 0-65.536 46.08-65.536 82.432 0.512 0 0.512 136.192 0.512 136.192zM338.944 141.824c38.912 0 70.656 31.744 70.656 70.656 0 38.912-31.744 70.656-70.656 70.656s-70.656-31.744-70.656-70.656c0-38.912 31.744-70.656 70.656-70.656z m0 101.888c17.408 0 31.232-14.336 31.232-31.232 0-17.408-14.336-31.232-31.232-31.232-17.408 0-31.232 14.336-31.232 31.232-0.512 16.896 13.824 31.232 31.232 31.232zM331.776 382.464c-16.384 0-29.696 13.312-29.696 29.184V741.888c0 16.384 13.312 29.184 29.184 29.184 16.384 0 29.184-13.312 29.184-29.184v-330.24c0.512-15.872-12.8-29.184-28.672-29.184zM685.568 382.464c-16.384 0-29.696 13.312-29.696 29.184V741.888c0 16.384 13.312 29.184 29.696 29.184 16.384 0 29.184-13.312 29.184-29.184v-330.24c0.512-15.872-12.8-29.184-29.184-29.184z"  horiz-adv-x="1024" />

    
    <glyph glyph-name="zhexiantu" unicode="&#59009;" d="M970.418605 80.372093H83.348837V717.395349c0 16.669767-13.097674 29.767442-29.767442 29.767442S23.813953 732.874419 23.813953 717.395349v-695.367442h946.604652c16.669767 0 29.767442 13.097674 29.767442 29.767442s-13.097674 28.576744-29.767442 28.576744zM160.744186 145.860465c8.334884 0 16.669767 3.572093 22.623256 10.716279l177.413953 210.753489 188.130233-58.344186 358.4 320.297674c11.906977 10.716279 13.097674 29.767442 2.381395 41.674419s-29.767442 13.097674-41.674418 2.381395l-333.395349-297.674419-192.893023 60.725582-203.609303-241.711628c-10.716279-13.097674-9.525581-30.95814 3.572093-41.674419 5.953488-4.762791 11.906977-7.144186 19.051163-7.144186z"  horiz-adv-x="1024" />

    
    <glyph glyph-name="zaixian" unicode="&#58948;" d="M512 896C229.229 896 0 666.77 0 384s229.229-512 512-512c282.77 0 512 229.23 512 512S794.77 896 512 896zM388.256 108.08L140.769 355.568l56.864 56.863 190.623-190.623L826.368 659.92l56.862-56.864L388.256 108.08z"  horiz-adv-x="1024" />

    
    <glyph glyph-name="baobiao1" unicode="&#59004;" d="M768-64H128c-17.67 0-32 14.33-32 32V672c0 17.67 14.33 32 32 32h640c17.67 0 32-14.33 32-32v-704c0-17.67-14.33-32-32-32z m-608 64h576V640H160v-640zM896 32c-17.67 0-32 14.33-32 32V768H225c-17.67 0-32 14.33-32 32s14.33 32 32 32h671c17.67 0 32-14.33 32-32v-736c0-17.67-14.33-32-32-32zM288 64h-64V288c0 17.67 14.33 32 32 32s32-14.33 32-32v-224zM480 64h-64V224c0 17.67 14.33 32 32 32s32-14.33 32-32v-160zM672 64h-64V352c0 17.67 14.33 32 32 32s32-14.33 32-32v-288zM448.02 384c-9.07 0-18.03 3.84-24.31 11.18L352 478.83l-71.7-83.65c-11.5-13.42-31.7-14.97-45.12-3.47-13.42 11.5-14.97 31.7-3.47 45.12l96 112a32 32 0 0 0 24.3 11.17 32 32 0 0 0 24.3-11.17l77.55-90.47 168.41 112.27c14.7 9.8 34.57 5.83 44.38-8.88 9.8-14.71 5.83-34.57-8.88-44.38l-192-128a32.008 32.008 0 0 0-17.75-5.37z"  horiz-adv-x="1024" />

    
    <glyph glyph-name="nengyuan" unicode="&#58936;" d="M514.218667 812.885333c-12.8 10.752-31.232 10.752-44.032 0-13.141333-11.093333-320.341333-273.066667-320.341334-547.157333C149.674667 76.8 303.274667-76.8 492.202667-76.8 680.96-76.8 834.56 76.8 834.56 265.557333c0 274.090667-307.370667 536.234667-320.341333 547.328zM492.202667-8.533333c-151.210667 0-274.090667 123.050667-274.090667 274.090666 0 202.922667 205.482667 411.306667 274.090667 475.136 68.608-64 274.090667-272.384 274.090666-475.136C766.293333 114.517333 643.242667-8.533333 492.202667-8.533333zM582.997333 321.877333l-101.717333 0.170667 64.853333 64.853333c13.312 13.312 13.312 34.986667 0 48.298667-13.312 13.312-34.986667 13.312-48.298666 0l-123.050667-122.88c-9.728-9.728-12.629333-24.405333-7.338667-37.205333s17.749333-20.992 31.402667-21.162667l101.717333-0.170667-64.853333-64.853333a34.2016 34.2016 0 0 1 24.064-58.368c8.704 0 17.408 3.413333 24.064 10.069333l122.88 122.88c9.728 9.728 12.629333 24.405333 7.338667 37.205334s-17.237333 21.162667-31.061334 21.162666z"  horiz-adv-x="1024" />

    
    <glyph glyph-name="zhandianditu1" unicode="&#58981;" d="M274.863158 507.957895c51.2 0 94.315789 43.115789 94.315789 94.315789s-43.115789 94.315789-94.315789 94.31579S180.547368 653.473684 180.547368 602.273684s40.421053-94.315789 94.31579-94.315789z m0 148.210526c29.642105 0 56.589474-24.252632 56.589474-56.589474s-26.947368-53.894737-56.589474-53.894736-56.589474 24.252632-56.589474 56.589473 24.252632 53.894737 56.589474 53.894737zM105.094737 516.042105c0-2.694737 0-2.694737 0 0l121.263158-164.378947c10.778947-18.863158 26.947368-29.642105 45.810526-29.642105s35.031579 10.778947 45.810526 29.642105l115.873685 150.905263v2.694737c16.168421 29.642105 26.947368 61.978947 26.947368 97.010526 0 105.094737-83.536842 188.631579-188.631579 188.631579s-188.631579-83.536842-188.631579-188.631579c0-32.336842 8.084211-59.284211 21.557895-86.231579z m169.768421 237.136842c83.536842 0 150.905263-67.368421 150.905263-150.905263 0-26.947368-8.084211-53.894737-21.557895-78.147368l-115.873684-150.905263v-2.694737c-2.694737-8.084211-8.084211-13.473684-13.473684-13.473684s-10.778947 5.389474-13.473684 13.473684l-121.263158 161.68421c-10.778947 21.557895-16.168421 43.115789-16.168421 67.368421-2.694737 86.231579 67.368421 153.6 150.905263 153.6zM972.8 693.894737c-10.778947 8.084211-21.557895 8.084211-32.336842 5.389474L700.631579 621.136842c-18.863158-5.389474-43.115789-5.389474-61.978947 0L547.031579 653.473684c-8.084211 5.389474-18.863158 0-21.557895-8.08421s2.694737-21.557895 10.778948-24.252632l91.621052-32.336842c26.947368-10.778947 59.284211-10.778947 86.231579 0l237.136842 78.147368v-533.557894c0-2.694737-2.694737-5.389474-5.389473-8.084211L711.410526 33.684211c-24.252632-8.084211-48.505263-10.778947-72.757894-5.389474L377.263158 90.273684c-29.642105 8.084211-61.978947 5.389474-91.621053-2.694737l-212.88421-72.757894V413.642105c0 10.778947-8.084211 18.863158-18.863158 18.863158s-18.863158-8.084211-18.863158-18.863158v-396.126316c0-10.778947 5.389474-24.252632 16.168421-29.642105 5.389474-5.389474 13.473684-8.084211 21.557895-8.08421 2.694737 0 8.084211 0 10.778947 2.694737l212.884211 70.063157c21.557895 8.084211 48.505263 8.084211 70.063158 2.694737l264.08421-59.28421c32.336842-8.084211 61.978947-5.389474 94.31579 5.389473l234.442105 86.231579c18.863158 8.084211 29.642105 24.252632 29.642105 43.11579V664.252632c0 10.778947-5.389474 24.252632-16.168421 29.642105zM315.284211 268.126316c-5.389474-8.084211-2.694737-21.557895 5.389473-26.947369 40.421053-29.642105 80.842105-43.115789 121.263158-43.115789 48.505263 0 99.705263 21.557895 156.294737 61.978947 48.505263 35.031579 97.010526 48.505263 140.126316 43.11579 45.810526-8.084211 91.621053-40.421053 126.652631-91.621053 5.389474-8.084211 16.168421-10.778947 26.947369-5.389474 8.084211 5.389474 10.778947 18.863158 5.389473 26.947369-40.421053 59.284211-94.315789 99.705263-150.905263 107.789474-53.894737 10.778947-113.178947-5.389474-169.768421-48.505264-105.094737-75.452632-169.768421-61.978947-231.747368-18.863158-13.473684 2.694737-24.252632 2.694737-29.642105-5.389473z"  horiz-adv-x="1024" />

    
    <glyph glyph-name="lixian1" unicode="&#59020;" d="M67.368421 206.147368c-10.778947 2.694737-21.557895-2.694737-24.252632-13.473684-2.694737-10.778947 2.694737-21.557895 13.473685-24.252631 115.873684-35.031579 202.105263-129.347368 229.052631-245.221053 2.694737-8.084211 10.778947-13.473684 18.863158-13.473684h5.389474c10.778947 2.694737 16.168421 13.473684 13.473684 21.557895-32.336842 132.042105-129.347368 237.136842-256 274.863157zM64.673684 462.147368c-10.778947 2.694737-18.863158-5.389474-21.557895-16.168421-2.694737-10.778947 5.389474-18.863158 16.168422-21.557894 250.610526-43.115789 447.326316-247.915789 476.968421-501.221053 0-10.778947 8.084211-16.168421 18.863157-16.168421h2.694737c10.778947 0 18.863158 10.778947 16.168421 21.557895-32.336842 266.778947-242.526316 487.747368-509.305263 533.557894zM64.673684 693.894737c-10.778947 0-21.557895-8.084211-21.557895-16.168421s5.389474-18.863158 16.168422-21.557895c374.568421-45.810526 670.989474-350.315789 706.021052-727.578947 0-10.778947 8.084211-16.168421 18.863158-16.168421h2.694737c10.778947 0 18.863158 10.778947 16.168421 21.557894C765.305263 324.715789 455.410526 645.389474 64.673684 693.894737zM843.452632 693.894737l134.736842 134.736842c8.084211 8.084211 8.084211 18.863158 0 26.947368s-18.863158 8.084211-26.947369 0l-134.736842-134.736842-134.736842 134.736842c-8.084211 8.084211-18.863158 8.084211-26.947368 0s-8.084211-18.863158 0-26.947368l134.736842-134.736842-134.736842-134.736842c-8.084211-8.084211-8.084211-18.863158 0-26.947369 2.694737-2.694737 8.084211-5.389474 13.473684-5.389473s10.778947 2.694737 13.473684 5.389473l134.736842 134.736842 134.736842-134.736842c2.694737-2.694737 8.084211-5.389474 13.473684-5.389473s10.778947 2.694737 13.473685 5.389473c8.084211 8.084211 8.084211 18.863158 0 26.947369l-134.736842 134.736842z"  horiz-adv-x="1024" />

    
    <glyph glyph-name="zaixian1" unicode="&#59021;" d="M48.505263 203.452632c-10.778947 2.694737-21.557895-2.694737-24.252631-13.473685-2.694737-10.778947 2.694737-21.557895 13.473684-24.252631 110.484211-32.336842 194.021053-123.957895 220.968421-234.442105 2.694737-8.084211 10.778947-13.473684 18.863158-13.473685h5.389473c10.778947 2.694737 16.168421 13.473684 13.473685 21.557895-29.642105 126.652632-123.957895 226.357895-247.91579 264.084211zM45.810526 448.673684c-10.778947 2.694737-18.863158-5.389474-21.557894-16.168421-2.694737-10.778947 5.389474-18.863158 16.168421-21.557895 239.831579-40.421053 428.463158-239.831579 460.8-482.357894 0-10.778947 8.084211-16.168421 18.863158-16.168421h2.694736c10.778947 0 18.863158 10.778947 16.168421 21.557894-32.336842 258.694737-234.442105 471.578947-493.136842 514.694737zM45.810526 672.336842c-10.778947 0-18.863158-8.084211-21.557894-16.168421 0-10.778947 5.389474-18.863158 16.168421-21.557895 361.094737-43.115789 646.736842-336.842105 679.073684-697.936842 0-10.778947 8.084211-16.168421 18.863158-16.168421h2.694737c10.778947 0 18.863158 10.778947 16.168421 21.557895C722.189474 316.631579 423.073684 626.526316 45.810526 672.336842zM994.357895 850.189474c-8.084211 8.084211-18.863158 8.084211-26.947369 0l-269.473684-269.473685-150.905263 150.905264c-8.084211 8.084211-18.863158 8.084211-26.947368 0s-8.084211-18.863158 0-26.947369l164.378947-164.378947c2.694737-2.694737 8.084211-5.389474 13.473684-5.389474s10.778947 2.694737 13.473684 5.389474L994.357895 823.242105c5.389474 5.389474 5.389474 18.863158 0 26.947369z"  horiz-adv-x="1024" />

    
    <glyph glyph-name="edition_SFontCN" unicode="&#59598;" d="M440.4224 214.4256L327.4752 510.2592h85.6064L487.0144 280.576l75.8784 229.6832h85.6064l-116.736-295.8336h-91.3408zM920.3712 885.76h-775.168C103.5264 885.76 68.608 858.2144 56.6272 820.5312h1.2288C29.2864 801.9968 10.24 770.048 10.24 733.4912v-747.4176C10.24-71.168 56.832-117.76 114.0736-117.76h747.4176c36.0448 0 67.7888 18.5344 86.4256 46.4896v-0.4096c37.9904 11.8784 65.8432 47.0016 65.8432 88.7808v775.168c0 51.6096-41.8816 93.4912-93.3888 93.4912z m3.3792-899.6864c0-34.304-27.9552-62.2592-62.2592-62.2592H114.0736c-34.304 0-62.2592 27.9552-62.2592 62.2592V733.4912c0 34.304 27.9552 62.2592 62.2592 62.2592h747.4176c34.304 0 62.2592-27.9552 62.2592-62.2592v-747.4176z m69.2224 31.1296c0-25.088-12.9024-47.104-32.256-60.1088 2.7648 9.216 4.608 18.8416 4.608 28.9792V733.4912c0 57.2416-46.592 103.8336-103.8336 103.8336H114.0736c-10.1376 0-19.7632-1.9456-29.0816-4.608 13.1072 19.456 35.1232 32.3584 60.2112 32.3584h775.168c40.0384 0 72.704-32.5632 72.704-72.704l-0.1024-775.168z"  horiz-adv-x="1024" />

    
    <glyph glyph-name="manage1" unicode="&#58881;" d="M387.8486016 829.61114201H139.0487021A82.85044939 82.85044939 0 0 1 56.32252839 746.8849683v-248.7998995a82.85044939 82.85044939 0 0 1 82.72617371-82.72617371h248.7998995A82.85044939 82.85044939 0 0 1 470.57477531 498.0850688V746.8849683a82.85044939 82.85044939 0 0 1-82.72617371 82.72617371M994.97669467 681.01886103l-175.93292925 175.89150404a82.85044939 82.85044939 0 0 1-116.98483454 0L677.70089876 832.5523329600001 526.12600162 681.01886103a82.14622057 82.14622057 0 0 1-24.15090599-58.32671636 82.14622057 82.14622057 0 0 1 24.15090599-58.65811816l24.35803212-24.35803211L677.70089876 412.37627891l24.35803212-24.35803212a82.72617371 82.72617371 0 0 1 116.98483454 0.04142523l151.57489714 151.61632238 24.35803211 24.31660688a82.76759893 82.76759893 0 0 1 0 116.98483454M387.8486016 332.50844571000005H139.0487021A82.85044939 82.85044939 0 0 1 56.32252839 249.78227200000003v-248.7998995a82.85044939 82.85044939 0 0 1 82.72617371-82.72617371h248.7998995A82.85044939 82.85044939 0 0 1 470.57477531 0.9823724999999968V249.78227200000003a82.85044939 82.85044939 0 0 1-82.72617371 82.72617371M884.9512979 332.50844571000005h-248.7998995A82.85044939 82.85044939 0 0 1 553.42522469 249.78227200000003v-248.7998995a82.85044939 82.85044939 0 0 1 82.72617371-82.72617371h248.7998995A82.85044939 82.85044939 0 0 1 967.67747161 0.9823724999999968V249.78227200000003a82.85044939 82.85044939 0 0 1-82.72617371 82.72617371"  horiz-adv-x="1024" />

    
    <glyph glyph-name="edit-outline" unicode="&#58882;" d="M307.933767 186.80859899999996l55.608246 121.906912 70.215853-67.788777-125.824099-54.118135z m95.818675 171.645022l366.409348 352.874171 82.001279-80.116062-365.732025-352.095249-82.678602 79.33714z m550.042994 370.90226l-50.505744-48.372175-81.854525 80.116062 49.704244 47.593254c8.003704 7.958549 23.435387 6.513593 32.150281-2.144858l48.281866-46.182162c5.147657-5.03477 8.071436-11.559652 8.071436-18.039379 0.011289-5.046059-2.201301-9.36964-5.847558-12.970742zM313.792614 365.70098099999996c-0.745056-0.767633-1.467534-1.478823-2.21259-2.889913L259.640613 178.78231700000003c-2.923779-10.78073 0-22.340381 8.071436-30.310219 6.581325-5.779826 14.607607-9.290618 23.390233-9.290619 2.935068 0 5.113791 0.699901 8.03757 1.399802l190.147239 49.749399h0.79021a8.048859 8.048859 0 0 1 5.791115 2.178724l507.721574 489.208069c15.28493 14.40441 23.356366 33.888744 23.356367 55.551803 0 24.519105-10.927483 49.03821-29.215214 67.077588l-48.281865 46.182163c-19.010208 18.039378-43.935707 28.853974-69.572396 28.853974-22.577445 0-43.145497-7.935972-57.707948-23.074149L314.503803 367.890993c-0.71119-0.699901-0.71119-1.478823-0.711189-2.190012zM100.932466 896C45.358086 896 0 851.29666 0 796.444758V-27.530372000000057c0-54.806747 45.358086-99.555242 100.932466-99.555241h806.082505c55.57438 0 100.864734 44.748495 100.864734 99.555241V498.456355h-86.290994v-451.729511c0-49.049498-40.221718-87.939147-89.214772-87.939147H175.539632c-49.004344 0-89.214772 38.889648-89.214773 87.939147V722.8422889999999c0 48.338309 40.210429 88.040745 89.214773 88.040745h457.904443V896H100.932466z"  horiz-adv-x="1026" />

    
    <glyph glyph-name="equipment" unicode="&#58883;" d="M448 480h-64a32 32 0 1 0 0 64h64a32 32 0 1 0 0-64z m320-256H256a32 32 0 0 0 0 64h512a32 32 0 0 0 0-64z m0-128H256a32 32 0 0 0 0 64h512a32 32 0 0 0 0-64z m-32 256H288a64 64 0 0 0-64 64V608a64 64 0 0 0 64 64h448a64 64 0 0 0 64-64v-192a64 64 0 0 0-64-64zM288 608v-192h448V608H288z"  horiz-adv-x="1024" />

    
    <glyph glyph-name="home" unicode="&#58891;" d="M879.74227 401.778354C870.158228 401.778354 862.379876 394.000001 862.379876 384.41596L862.379876 1.262646C862.379876-40.846945 828.118086-75.108735 786.00849-75.108735L651.114264-75.108735 651.114264 190.790543C651.114264 200.374585 643.335912 208.152937 633.75187 208.152937L444.108227 208.152937C434.524186 208.152937 426.745833 200.374585 426.745833 190.790543L426.745833-75.108735 291.805307-75.108735C249.718864-75.108735 215.480223-40.846945 215.480223 1.262646L215.480223 384.41596C215.480223 394.000001 207.70187 401.778354 198.117829 401.778354 188.533787 401.778354 180.755434 394.000001 180.755434 384.41596L180.755434 1.262646C180.755434-59.991875 230.573931-109.833523 291.805307-109.833523L786.00849-109.833523C847.263016-109.833523 897.104664-59.991875 897.104664 1.262646L897.104664 384.41596C897.104664 394.000001 889.326312 401.778354 879.74227 401.778354L879.74227 401.778354ZM461.470621 173.428149 616.389476 173.428149 616.389476-75.085587 461.470621-75.085587 461.470621 173.428149ZM1051.305871 530.283219 925.810489 620.776017C909.39724 632.675045 894.974874 660.778973 894.974874 680.91935L894.974874 829.726642C894.974874 865.122776 866.176453 893.9212 830.803467 893.9212L786.749284 893.9212C751.399451 893.9212 722.647326 865.122776 722.647326 829.726642L722.647326 780.278544C722.647326 773.935482 721.165738 771.0649 721.003687 770.833401 720.471239 770.833401 717.48491 771.0186 712.114144 774.907776L582.336032 868.548955C566.594129 879.961835 553.884855 889.175479 551.153174 891.282116 547.796442 894.175848 543.189623 896.120436 538.906899 895.981537 534.855674 896.213036 530.133102 894.245298 526.776373 891.328416 523.790041 889.01343 508.071287 877.623699 489.5514 864.196781L26.600526 530.283219C12.71061 520.236181 3.566416 505.373971 0.834733 488.381975-1.896951 471.413128 2.131125 454.444282 12.108714 440.693266L29.725756 416.154416C41.578484 399.671716 60.491919 390.226574 81.60459 390.226574L81.62774 390.226574C83.850126 390.226574 86.095662 390.342323 88.341199 390.550672 91.39698 390.85162 94.313862 391.939664 96.814047 393.745352L538.930049 712.727256 981.1155 393.745352C983.615682 391.939664 986.532568 390.85162 989.588351 390.550672 991.833886 390.342323 994.079421 390.226574 996.324956 390.226574 1017.50708 390.226574 1036.397363 399.694866 1048.064889 416.131266L1065.774533 440.670116C1086.493658 469.399091 1079.988547 509.587246 1051.305871 530.283219L1051.305871 530.283219ZM1037.624304 460.995692 1019.845212 436.341093C1014.844842 429.349835 1006.626644 425.206011 997.204652 424.951362L549.231735 748.12339 549.208587 748.10024C543.397969 752.336664 534.369526 752.498713 528.350563 747.891891L80.724895 424.951362C71.279753 425.206011 63.015253 429.349835 57.922285 436.433692L40.282092 461.018842C35.69842 467.315604 33.869581 475.070806 35.119674 482.872309 36.369766 490.696961 40.55989 497.526169 46.926102 502.109842L509.923276 836.046553C523.558542 845.954693 532.679587 852.575552 538.906899 857.205524 544.185069 853.316348 551.569871 847.99188 561.941008 840.445026L691.811716 746.711249C701.604104 739.696841 711.419645 736.108613 721.003687 736.108613 739.106875 736.108613 757.372114 749.767029 757.372114 780.278544L757.372114 829.726642C757.372114 845.977843 770.544387 859.196412 786.749284 859.196412L830.803467 859.196412C847.031517 859.196412 860.250085 845.977843 860.250085 829.726642L860.250085 680.91935C860.250085 649.75964 880.112667 610.983627 905.484913 592.625789L1031.003443 502.109842C1044.152563 492.618399 1047.115749 474.167962 1037.624304 460.995692L1037.624304 460.995692Z"  horiz-adv-x="1078" />

    
    <glyph glyph-name="data" unicode="&#58892;" d="M512 896c-215.808 0-448-65.056-448-208l0-608c0-142.88 232.192-208 448-208s448 65.12 448 208l0 608c0 142.944-232.256 208-448 208zM896 80c0-79.488-171.936-144-384-144-212.096 0-384 64.512-384 144l0 119.552c66.112-68.128 225.6-103.552 384-103.552s317.888 35.424 384 103.552l0-119.552zM896 272l-0.128 0c0-0.32 0.128-0.672 0.128-0.992 0-79.008-171.936-143.008-384-143.008s-384 64-384 143.008c0 0.32 0.128 0.672 0.128 0.992l-0.128 0 0 119.552c66.112-68.128 225.6-103.552 384-103.552s317.888 35.424 384 103.552l0-119.552zM896 464l-0.128 0c0-0.32 0.128-0.672 0.128-0.992 0-79.008-171.936-143.008-384-143.008s-384 64-384 143.008c0 0.32 0.128 0.672 0.128 0.992l-0.128 0 0 109.952c83.872-63.904 237.6-93.952 384-93.952s300.128 30.048 384 93.952l0-109.952zM512 544c-212.096 0-384 64.512-384 144 0 79.552 171.904 144 384 144 212.064 0 384-64.448 384-144 0-79.488-171.936-144-384-144zM768 64c0 17.664 14.336 32 32 32s32-14.336 32-32c0-17.664-14.336-32-32-32s-32 14.336-32 32zM768 256c0 17.664 14.336 32 32 32s32-14.336 32-32c0-17.664-14.336-32-32-32s-32 14.336-32 32zM768 448c0 17.664 14.336 32 32 32s32-14.336 32-32c0-17.664-14.336-32-32-32s-32 14.336-32 32z"  horiz-adv-x="1024" />

    
    <glyph glyph-name="me" unicode="&#58950;" d="M668.602 247.331c-51.911 0-46.694-30.674-135.738-30.674s-92.023 32.91-116.365 32.289c-317.179 0-353.070-119.47-353.070-272.594h934.769c0 149.15-29.557 270.98-329.596 270.98zM339.626 464.909c-13.66 32.537-21.113 58.244-21.113 65.696 0 26.702-1.242 52.532-1.74 76.749-15.151-7.326-9.189-37.505-9.189-73.644 0-30.674 13.412-57.003 32.041-68.8zM719.148 457.954c23.348 8.817 37.133 38.001 37.133 72.651 0 26.576 2.857 50.047-10.557 63.46-0.621-20.367-1.366-41.603-1.366-63.46 0-6.458-8.942-35.642-25.211-72.651zM339.626 464.909c33.282-79.233 103.325-199.323 191.747-199.323 85.070 0 153.002 113.508 187.773 192.369 16.269 36.884 25.211 66.192 25.211 72.651 0 21.858 0.869 43.093 1.366 63.46 3.353 115.744-1.49 201.682-214.351 201.682-204.54 0-216.958-79.357-214.722-188.27 0.496-24.34 1.74-50.047 1.74-76.749 0.124-7.575 7.575-33.282 21.236-65.821z"  horiz-adv-x="1024" />

    
    <glyph glyph-name="arrowrightdl" unicode="&#59050;" d="M240 96c-12.288 0-24.576 4.672-33.92 14.08-18.752 18.752-18.752 49.152 0 67.904l222.08 222.08L206.08 622.08c-18.752 18.752-18.752 49.152 0 67.904s49.152 18.752 67.904 0l256-256c18.752-18.752 18.752-49.152 0-67.904l-256-256C264.576 100.672 252.288 96 240 96zM560 96c-12.288 0-24.576 4.672-33.92 14.08-18.752 18.752-18.752 49.152 0 67.904l222.08 222.08L526.08 622.08c-18.752 18.752-18.752 49.152 0 67.904s49.152 18.752 67.904 0l256-256c18.752-18.752 18.752-49.152 0-67.904l-256-256C584.576 100.672 572.288 96 560 96z"  horiz-adv-x="1024" />

    
    <glyph glyph-name="data1" unicode="&#59120;" d="M512 832C299.968 832 128 746.048 128 640l0-542.656 2.176 0C150.336 0.832 313.536-74.432 512-74.432c207.488 0 376.128 82.304 383.296 185.28L896 110.848 896 640C896 746.048 724.032 832 512 832zM512 768c195.328 0 320-75.84 320-128s-124.672-128-320-128S192 587.84 192 640 316.672 768 512 768zM512-10.432c-195.328 0-320 75.84-320 128L192 533.952C260.8 482.176 378.368 448 512 448s251.264 34.176 320 85.952l0-416.384C832 65.344 707.328-10.432 512-10.432z"  horiz-adv-x="1024" />

    
    <glyph glyph-name="data06" unicode="&#59003;" d="M104.341928 170.142308l152.562675 0 0-192.199417L104.341928-22.057109 104.341928 170.142308 104.341928 170.142308zM104.341928 170.142308M337.001849 367.205499l156.375513 0 0-389.262608L337.001849-22.057109 337.001849 367.205499 337.001849 367.205499zM337.001849 367.205499M569.663816 292.199201 724.77043 292.199201l0-314.257334L569.663816-22.058133 569.663816 292.199201 569.663816 292.199201zM569.663816 292.199201M802.323737 482.902544l156.381653 0 0-504.960677-156.381653 0L802.323737 482.902544 802.323737 482.902544zM802.323737 482.902544M62.385351 360.849744 424.726819 693.952284l207.944006-204.288756 196.35097 228.444922L757.82322 793.007301l200.88217 0 0-194.408735-70.232574 72.374354L632.670825 361.35628 422.513408 577.418174 112.80774 289.093467 62.385351 360.849744zM62.385351 360.849744"  horiz-adv-x="1024" />

    
    <glyph glyph-name="alarm" unicode="&#58895;" d="M914.312 254.688c-14.44 25.248-31.128 85.312-42.624 126.688-32.504 116.936-82.816 297.44-234.128 362.248C639.064 751.56 640 759.688 640 768c0 70.688-57.312 128-128 128S384 838.688 384 768c0-8.312 0.936-16.44 2.44-24.376-151.312-64.816-201.624-245.312-234.128-362.248-11.504-41.376-28.184-101.44-42.624-126.688C47.688 245.816 0 192.496 0 128c0-70.688 57.312-128 128-128l256 0c0-70.688 57.312-128 128-128s128 57.312 128 128l256 0c70.688 0 128 57.312 128 128C1024 192.496 976.312 245.816 914.312 254.688zM896 64 512 64 128 64c-35.312 0-64 28.688-64 64 0 31.624 23.56 58.872 54.752 63.312 19.56 2.816 36.688 14.504 46.504 31.624 17 29.752 32.128 81.56 48.752 141.312C243.624 470.872 288.376 632 411.624 684.816c27.624 11.816 43.248 41.184 37.688 70.688C448.44 760.248 448 764.312 448 768c0 35.312 28.688 64 64 64s64-28.688 64-64c0-3.688-0.44-7.752-1.312-12.504-5.56-29.504 10.064-58.872 37.688-70.688 123.248-52.816 168-213.936 197.688-320.688 16.56-59.624 31.688-111.44 48.688-141.184 9.816-17.128 26.936-28.816 46.504-31.624C936.44 186.872 960 159.624 960 128 960 92.688 931.312 64 896 64z"  horiz-adv-x="1024" />

    
    <glyph glyph-name="save" unicode="&#58911;" d="M845.312 895.488h-812.8v-1022.976h958.976v876.8l-146.176 146.176zM672.448 832.512v-256h-320.96v256h320.96zM287.488-64.512v354.752l29.184 29.248h390.656l29.184-29.248v-354.752h-449.024zM927.488-64.512h-126.976v375.36l-73.088 73.152h-430.848l-73.088-73.152v-375.36h-126.976v897.024h190.976v-320.448h449.024v320.448h79.68l111.296-112.32v-784.704zM543.488 767.488h65.984v-128h-65.984v128z"  horiz-adv-x="1024" />

    
    <glyph glyph-name="baobiao" unicode="&#58962;" d="M822.784 92.672H284.672c-9.728 0-14.336 3.072-14.336 11.776V644.096c0 17.408 10.24 30.72 31.232 30.72h503.808c15.36 0 27.136-10.24 27.136-25.6v-544.256c0-7.168-3.584-12.288-9.728-12.288z m-23.552 538.624H302.08v-502.784h497.152v502.784z m-233.472-198.656l-75.776 80.384c-0.512 1.024-0.512 2.048-1.024 2.56-4.096 4.096-8.704 5.632-13.824 5.12-5.12 0-10.24-1.536-13.824-5.12-1.024-0.512-0.512-2.048-1.024-2.56l-77.824-80.896c-7.168-7.168-8.192-17.408-2.56-23.04 7.168-7.168 16.384-6.656 23.552 1.024l72.192 72.192 70.656-71.68c7.168-7.168 17.408-8.192 23.04-1.536 5.12 7.168 3.584 15.872-3.584 23.552z m147.456 121.856c-1.536 1.024-7.168 1.536-9.216 1.536H627.712c-10.752 0-17.92-7.68-17.408-18.432 0.512-12.288 11.264-16.384 35.328-16.384l20.48-0.512-86.016-87.552c-7.168-7.168-10.24-17.408-3.072-24.576s18.432-5.12 25.6 2.048l87.04 91.648v-43.52c0-8.192 7.68-15.872 16.896-15.36 10.752 0.512 15.36 7.168 15.36 15.36v77.824 3.072c0 2.56-0.512 4.096-1.536 6.656-0.512 1.536-1.536 3.072-2.56 4.608-1.536 1.536-3.584 3.072-4.608 3.584z m-102.912-306.176H340.48v30.72h269.824v-30.72z m115.712-61.44H340.48v29.184h385.024v-29.184zM340.48 340.48h271.872v-30.208H340.48z"  horiz-adv-x="1098" />

    
    <glyph glyph-name="datastatistics" unicode="&#58954;" d="M864.664 538.802l-75.709 75.637L669.853 504.48v-404.062h222.262V641.102l-27.452-102.301zM468.103 399.18l-68.132 43.892v-342.653h222.266V460.518l-57.332-52.835c-14.586-13.58-33.887-21.084-53.761-21.084-15.3 0-30.028 4.356-43.042 12.581z m-115.739 74.489l-56.194 36.173-166.075-144.48v-264.944h222.27V473.669z m-222.27-428.372h762.022v-79.357H130.094v79.357z m52.693 420.581l109.095 95.441 202.031-130.042c5.29-3.288 11.226-5.005 17.231-5.005 7.72 0 15.441 2.86 21.518 8.436l257.655 237.919 49.685-49.685 48.111 179.514-179.514-48.111 36.818-36.817L507.64 498.047 306.036 627.662c-11.937 7.507-27.452 6.505-38.103-2.86l-127.04-111.098c-13.085-11.578-14.512-31.598-2.932-44.826 11.51-13.223 31.598-14.51 44.826-3z"  horiz-adv-x="1024" />

    
    <glyph glyph-name="xinghao" unicode="&#58957;" d="M600.91018 454.51497c55.185629 24.526946 110.371257 49.053892 159.425149 73.580838 49.053892 24.526946 91.976048 42.922156 116.502994 55.185629 30.658683 12.263473 55.185629 18.39521 73.580839 18.39521 30.658683 0 55.185629-12.263473 79.712575-30.658683s30.658683-42.922156 30.658682-73.580838c0-18.39521-6.131737-36.790419-18.395209-55.185629-12.263473-18.39521-24.526946-30.658683-30.658683-36.790419-110.371257-42.922156-226.874251-73.580838-361.772455-91.976048 24.526946-24.526946 55.185629-49.053892 85.844311-85.844311 36.790419-36.790419 55.185629-55.185629 55.185629-61.317366 12.263473-18.39521 30.658683-36.790419 55.185629-67.449102 24.526946-24.526946 36.790419-49.053892 49.053892-61.317365 6.131737-12.263473 12.263473-30.658683 12.263473-55.185629s-12.263473-49.053892-30.658683-73.580838c-18.39521-18.39521-49.053892-30.658683-79.712574-30.658682s-67.449102 24.526946-110.371258 73.580838c-42.922156 49.053892-91.976048 141.02994-153.293413 269.796407-61.317365-116.502994-110.371257-196.215569-128.766467-233.005988-24.526946-36.790419-42.922156-67.449102-61.317365-85.844311-18.39521-18.39521-42.922156-30.658683-67.449102-30.658683-30.658683 0-55.185629 12.263473-79.712575 30.658683-18.39521 24.526946-30.658683 42.922156-30.658683 67.449101 0 24.526946 6.131737 42.922156 12.263473 49.053893 79.712575 104.239521 159.42515 196.215569 245.269461 275.928143-79.712575 36.790419-147.161677 49.053892-202.347305 61.317366-55.185629 12.263473-116.502994 30.658683-177.820359 61.317365-6.131737 6.131737-18.39521 18.39521-30.658683 36.790419C6.131737 466.778443 0 485.173653 0 503.568862c0 30.658683 12.263473 55.185629 30.658683 73.580839 24.526946 18.39521 49.053892 30.658683 73.580838 30.658682 24.526946 0 49.053892-6.131737 79.712575-18.395209 30.658683-12.263473 67.449102-30.658683 116.502994-55.185629l159.42515-79.712575c-12.263473 55.185629-18.39521 116.502994-24.526947 183.952096-12.263473 67.449102-12.263473 116.502994-12.263473 141.02994 0 30.658683 12.263473 55.185629 30.658683 79.712575S496.670659 896 527.329341 896s55.185629-12.263473 73.580839-30.658683c18.39521-24.526946 30.658683-55.185629 30.658682-91.976048 0-12.263473 0-30.658683-6.131736-61.317365 0-30.658683-6.131737-67.449102-12.263473-110.371257 0-42.922156-6.131737-91.976048-12.263473-147.161677z"  horiz-adv-x="1080" />

    
    <glyph glyph-name="left-" unicode="&#59030;" d="M739.6771 895.89601l56.592805-56.591806-455.3562-455.355199 455.3552-455.3552-56.591805-56.591805-511.947005 511.947005z"  horiz-adv-x="1024" />

    
    <glyph glyph-name="right" unicode="&#58938;" d="M723.1 412.6c-1.3 1.3-2.6 2.4-4 3.4L355.9 780c-14.6 14.6-38.4 14.6-53 0-14.6-14.6-14.6-38.5 0-53.1l340.4-341.2L302.9 45c-14.6-14.6-14.6-38.4 0-53 14.6-14.6 38.4-14.6 53 0l362.9 363.3c1.5 1.1 2.9 2.3 4.3 3.7 7.4 7.4 11 17.1 10.9 26.8 0.1 9.7-3.6 19.4-10.9 26.8z"  horiz-adv-x="1024" />

    
    <glyph glyph-name="Securitycheck" unicode="&#59269;" d="M512 826.181818c349.090909 0 372.363636-93.090909 372.363636-93.090909v-309.527273a465.198545 465.198545 0 0 0-237.265454-405.643636L512-58.181818l-135.098182 76.101818A465.198545 465.198545 0 0 0 139.636364 423.563636V733.090909s0 93.090909 372.363636 93.090909m0 69.818182C346.624 896 226.513455 877.847273 154.949818 842.007273 75.962182 802.676364 69.818182 748.683636 69.818182 733.090909v-309.527273a536.040727 536.040727 0 0 1 272.849454-466.618181l135.098182-75.869091a69.096727 69.096727 0 0 1 68.468364 0l135.098182 75.869091A536.040727 536.040727 0 0 1 954.181818 423.563636V733.090909a69.329455 69.329455 0 0 1-2.094545 16.989091C938.472727 804.538182 863.162182 896 512 896z m-23.272727-640a35.118545 35.118545 0 0 0-24.692364 10.24l-162.909091 162.909091a34.909091 34.909091 0 0 0 49.338182 49.338182l138.24-138.24 231.330909 231.330909a34.909091 34.909091 0 1 0 49.338182-49.338182l-256-256A35.118545 35.118545 0 0 0 488.727273 256z"  horiz-adv-x="1024" />

    
    <glyph glyph-name="password" unicode="&#58978;" d="M232.727273 492.606061V614.4C232.727273 769.861818 357.779394 896 512.062061 896h30.906181C697.250909 896 822.30303 769.830788 822.30303 614.4a31.030303 31.030303 0 0 0-62.060606 0C760.242424 735.666424 662.869333 833.939394 542.968242 833.939394h-30.906181C392.16097 833.939394 294.787879 735.697455 294.787879 614.4V492.606061h527.608242A124.121212 124.121212 0 0 0 946.424242 368.484848v-372.363636c0-68.57697-55.668364-124.121212-124.028121-124.121212H201.603879A124.121212 124.121212 0 0 0 77.575758-3.878788V368.484848c0 68.57697 55.668364 124.121212 124.028121 124.121213H232.727273z m-93.090909-124.121213v-372.363636a62.060606 62.060606 0 0 1 61.967515-62.060606h620.792242c34.133333 0 61.967515 27.834182 61.967515 62.060606V368.484848a62.060606 62.060606 0 0 1-61.967515 62.060607H201.603879C167.470545 430.545455 139.636364 402.711273 139.636364 368.484848z"  horiz-adv-x="1024" />

    
    <glyph glyph-name="Datastatistics" unicode="&#58932;" d="M907.264 415.914667c17.578667 0 31.914667-14.165333 31.914667-31.914667v-309.418667c0-60.245333-46.592-109.226667-103.765334-109.226666h-646.826666c-57.173333 0-103.936 48.981333-103.936 109.226666V693.418667c0 60.245333 46.762667 109.226667 103.936 109.226666h179.712a32.085333 32.085333 0 0 0 0-63.829333H188.586667c-22.016 0-39.936-20.48-39.936-45.397333v-618.837334c0-24.917333 17.92-45.397333 39.936-45.397333h646.826666c22.016 0 39.765333 20.48 39.765334 45.397333V384c0 17.578667 14.336 32.085333 32.085333 32.085333z m-658.261333-128a32.085333 32.085333 0 0 0 64 0v-134.826667a31.914667 31.914667 0 1 0-64 0v134.826667z m153.941333-19.456a32.085333 32.085333 0 0 0 64 0v-115.370667a32.085333 32.085333 0 0 0-64 0v115.370667z m186.026667-147.456a32.085333 32.085333 0 0 0-31.914667 31.914666v113.834667a32.085333 32.085333 0 0 0 64 0v-113.834667a32.085333 32.085333 0 0 0-32.085333-31.914666z m122.026666 301.568a32.085333 32.085333 0 0 0 64 0v-269.653334a31.914667 31.914667 0 1 0-64 0v269.653334zM902.997333 800.938667c17.749333 0 32.085333-14.336 32.085334-31.914667v-231.082667a32.085333 32.085333 0 0 0-64 0V710.997333L675.328 515.413333a30.72 30.72 0 0 0-15.018667-8.021333 31.402667 31.402667 0 0 0-13.653333-3.413333 31.914667 31.914667 0 0 0-22.357333 9.557333l-117.76 117.76-208.896-209.066667a31.914667 31.914667 0 1 0-45.397334 45.226667l230.912 230.912a31.573333 31.573333 0 0 0 37.205334 5.461333 30.890667 30.890667 0 0 0 11.093333-7.168l117.418667-117.248 157.696 157.525334h-165.546667a32.085333 32.085333 0 0 0 0 64h261.973333z"  horiz-adv-x="1024" />

    
    <glyph glyph-name="message" unicode="&#58887;" d="M872.803 140.006h0.061v0.37zM641.612 417.535h-263.05c-18.447 0-33.352-13.225-33.352-29.515 0-16.306 14.905-29.545 33.352-29.545h263.05c18.418 0 33.384 13.24 33.384 29.545 0 16.29-14.908 29.515-33.384 29.515M512.007 801.338c-228.164 0-413.795-158.927-413.795-354.273 0-99.213 49.57-192.906 136.969-260.893l101.667-78.787c-3.004-16.778-15.917-56.112-30.527-92.116-4.582-11.16-1.845-23.98 6.785-32.34 5.623-5.446 13.061-8.302 20.589-8.302 4.046 0 8.123 0.832 12.02 2.528 33.68 14.998 115.68 55.043 173.285 115.92 224.934 3.244 406.786 160.638 406.786 353.99 0 195.346-185.6 354.273-413.78 354.273m-1.574-650.214c-1.847 0-1.847-0.03-3.572-0.326-12.734-1.457-28.682-18.656-28.682-18.656s-52.635-52.692-96.759-77.746c16.097 53.705 13.27 73.489 8.123 81.14-1.279 1.991-2.707 3.508-4.432 4.67l0.118 0.058s-0.416 0.209-1.13 0.595c-0.387 0.238-0.774 0.417-1.19 0.656-13.45 7.2-83.339 46.056-140.169 100.506-55.102 57.871-85.422 135.468-85.422 205.045 0 162.78 159.122 295.227 354.69 295.227 195.567 0 354.688-132.447 354.688-295.227 0-162.794-160.696-295.942-356.263-295.942M645.45 535.625H378.563c-18.447 0-33.383-13.224-33.383-29.515 0-16.304 14.936-29.53 33.383-29.53h266.889c18.478 0 33.353 13.226 33.353 29.53 0 16.291-14.875 29.515-33.353 29.515"  horiz-adv-x="1024" />

    
    <glyph glyph-name="edit_small" unicode="&#58880;" d="M689.59393838 637.24890224c-16.43231641 17.37367418-43.18108399 17.37367418-59.61044036 0L596.18934869 601.33521827l79.45295768-84.21895134 33.79710992 35.90184323c16.61289129 17.38255487 16.61289129 45.63808691 0 63.02360184l-19.84547791 21.20719024z m-109.44615368-52.71603084l-221.15689357-234.9161094V344.65835268h19.09653629v-19.09949632h19.09949635v-19.09949636h19.09949633v-19.09653628h19.0965363V260.0604902l224.40724157 240.25046979-79.64241327 84.22191141zM339.89139478 329.18515596l-8.21467844-8.59062901-29.98135419-114.98181039 117.06878231 36.47909065 6.49181582 7.07202381h-8.96954017v19.09653627h-19.09949634v19.09949636h-19.09949635v19.09653629h-19.09653629v19.09949634H339.89139478v3.62925968z m-22.92117217-177.62058044v-36.08833874h397.81835486v36.08833875H316.97022262z"  horiz-adv-x="1024" />

    
    <glyph glyph-name="save1" unicode="&#59072;" d="M306.176 346.624l1.024-1.024 173.568-152.576c19.968-17.92 50.176-17.408 70.144 0.512l168.448 152.576c20.992 19.968 22.016 53.248 2.048 74.24-19.456 20.48-51.712 22.016-72.704 3.584l-83.456-75.264V823.808c0 29.184-23.552 52.736-52.736 52.736-29.184 0-52.736-23.552-52.736-52.736v-472.064L376.32 424.96c-21.504 19.456-54.784 17.408-74.24-4.096-19.456-21.504-17.92-54.784 4.096-74.24zM969.216 267.776c-30.208 0-54.784-24.576-54.784-54.784v-211.968H109.056v211.968c0 30.208-24.576 54.784-54.784 54.784S0 243.2 0 212.992V-5.12c0-56.832 49.664-102.912 110.592-102.912h802.816c60.928 0 110.592 46.08 110.592 102.912v218.112c0 30.208-24.576 54.784-54.784 54.784z"  horiz-adv-x="1024" />

    
    <glyph glyph-name="about" unicode="&#58963;" d="M512 768c211.2 0 384-172.8 384-384s-172.8-384-384-384S128 172.8 128 384 300.8 768 512 768m0 64C264.533333 832 64 631.466667 64 384s200.533333-448 448-448 448 200.533333 448 448S759.466667 832 512 832zM580.266667 569.6m-51.2 0a51.2 51.2 0 1 1 102.4 0 51.2 51.2 0 1 1-102.4 0ZM539.733333 492.8c-10.666667 4.266667-23.466667 0-27.733333-10.666667-25.6-46.933333-104.533333-200.533333-128-292.266666-29.866667-108.8 170.666667-157.866667 238.933333 4.266666 4.266667 8.533333 4.266667 19.2 2.133334 29.866667-4.266667 19.2-17.066667 42.666667-51.2-4.266667-49.066667-70.4-206.933333-181.333333-68.266667 83.2 0 0 36.266667 78.933333 55.466667 119.466667 8.533333 14.933333 8.533333 34.133333 0 49.066667-4.266667 8.533333-10.666667 14.933333-21.333334 21.333333z"  horiz-adv-x="1024" />

    
    <glyph glyph-name="search" unicode="&#59201;" d="M192 416a256 256 0 1 0 512 0 256 256 0 0 0-512 0m631.776-362.496l-143.2 143.168A318.464 318.464 0 0 1 768 416c0 176.736-143.264 320-320 320S128 592.736 128 416s143.264-320 320-320a318.016 318.016 0 0 1 184.16 58.592l146.336-146.368c12.512-12.48 32.768-12.48 45.28 0 12.48 12.512 12.48 32.768 0 45.28"  horiz-adv-x="1024" />

    
    <glyph glyph-name="alarm1" unicode="&#58998;" d="M443.776 799.232a96.256 96.256 0 0 0 136.448 0l347.008-347.008a96.256 96.256 0 0 0 0-136.448l-347.008-347.008a96.256 96.256 0 0 0-136.448 0L96.768 315.776a96.256 96.256 0 0 0 0 136.448l347.008 347.008zM565.76 330.24V574.464a48.96 48.96 0 0 1-48.832 48.832 48.96 48.96 0 0 1-48.832-48.832V330.24c0-26.88 21.952-48.832 48.832-48.832s48.832 21.952 48.832 48.832z m-48.832-195.328a48.896 48.896 0 1 1-0.064 97.728 48.896 48.896 0 0 1 0-97.728z"  horiz-adv-x="1024" />

    
    <glyph glyph-name="tv" unicode="&#59689;" d="M1024 182.857143V731.428571q0 7.428571-5.428571 12.857143T1005.714286 749.714286H91.428571q-7.428571 0-12.857142-5.428572T73.142857 731.428571v-548.571428q0-7.428571 5.428572-12.857143T91.428571 164.571429h914.285715q7.428571 0 12.857143 5.428571t5.428571 12.857143z m73.142857 548.571428v-548.571428q0-37.714286-26.857143-64.571429t-64.571428-26.857143H585.142857v-73.142857h201.142857q8 0 13.142857-5.142857t5.142858-13.142857v-36.571429q0-8-5.142858-13.142857t-13.142857-5.142857H310.857143q-8 0-13.142857 5.142857t-5.142857 13.142857v36.571429q0 8 5.142857 13.142857t13.142857 5.142857h201.142857v73.142857H91.428571q-37.714286 0-64.571428 26.857143t-26.857143 64.571429V731.428571q0 37.714286 26.857143 64.571429t64.571428 26.857143h914.285715q37.714286 0 64.571428-26.857143t26.857143-64.571429z"  horiz-adv-x="1097" />

    
    <glyph glyph-name="baseline-close-px" unicode="&#58901;" d="M810.666667 622.506667L750.506667 682.666667 512 444.16 273.493333 682.666667 213.333333 622.506667 451.84 384 213.333333 145.493333 273.493333 85.333333 512 323.84 750.506667 85.333333 810.666667 145.493333 572.16 384z"  horiz-adv-x="1024" />

    
    <glyph glyph-name="expandLeftpanel" unicode="&#58952;" d="M0-128h480V896H0zM608 896h-64v-1024H1024V896H608zM960-64H608V832H960v-896z"  horiz-adv-x="1024" />

    
    <glyph glyph-name="expandrightpanel" unicode="&#58953;" d="M544 896v-1024H1024V896zM0 896v-1024h480V896H0z m416-960H64V832h352v-896z"  horiz-adv-x="1024" />

    
    <glyph glyph-name="manage" unicode="&#58893;" d="M1022.4 30.4c3.2-17.6 0-33.6-11.2-48-11.2-14.4-24-24-43.2-25.6l-92.8-17.6c-17.6-3.2-33.6 0-48 11.2s-24 24-27.2 43.2L660.8 736c-1.6 9.6 0 17.6 1.6 25.6s4.8 16 11.2 22.4c4.8 6.4 11.2 12.8 19.2 17.6s16 8 24 9.6l91.2 17.6c17.6 3.2 33.6-1.6 48-11.2 14.4-11.2 22.4-25.6 25.6-43.2l140.8-744z m-516.8 800c17.6 0 33.6-6.4 46.4-19.2 12.8-12.8 19.2-27.2 19.2-46.4v-761.6c0-17.6-6.4-33.6-19.2-46.4-12.8-12.8-27.2-19.2-46.4-19.2h-94.4c-17.6 0-33.6 6.4-46.4 19.2-12.8 12.8-19.2 27.2-19.2 46.4V764.8c0 17.6 4.8 33.6 14.4 46.4s24 19.2 41.6 19.2h104z m0-566.4c6.4 0 11.2 3.2 16 8s6.4 12.8 6.4 20.8-1.6 16-6.4 20.8c-4.8 4.8-9.6 8-16 8h-94.4c-6.4 0-11.2-3.2-16-8-4.8-4.8-6.4-12.8-6.4-20.8s1.6-14.4 6.4-20.8c4.8-6.4 9.6-8 16-8h94.4z m0 179.2c6.4 0 11.2 3.2 16 8s6.4 12.8 6.4 20.8-1.6 16-6.4 20.8-9.6 8-16 8h-94.4c-6.4 0-11.2-3.2-16-8-4.8-4.8-6.4-12.8-6.4-20.8s1.6-16 6.4-20.8c4.8-6.4 9.6-8 16-8h94.4zM160 830.4c17.6 0 33.6-6.4 46.4-19.2 12.8-12.8 19.2-27.2 19.2-46.4v-761.6c0-17.6-6.4-33.6-19.2-46.4-12.8-12.8-28.8-19.2-46.4-19.2H65.6c-17.6 0-33.6 6.4-46.4 19.2-12.8 14.4-19.2 28.8-19.2 46.4V764.8C0 784 6.4 798.4 19.2 811.2S48 830.4 65.6 830.4H160zM68.8 572.8c-6.4 0-11.2-3.2-16-8s-6.4-12.8-6.4-20.8 1.6-14.4 6.4-20.8c4.8-6.4 9.6-8 16-8h86.4c6.4 0 11.2 3.2 16 8 3.2 6.4 6.4 12.8 6.4 20.8s-1.6 16-6.4 20.8c-3.2 4.8-9.6 8-16 8H68.8zM160 193.6c6.4 0 11.2 3.2 16 8 3.2 4.8 6.4 12.8 6.4 19.2 0 8-1.6 14.4-6.4 20.8s-9.6 8-16 8H68.8c-6.4 0-11.2-3.2-16-8-4.8-4.8-6.4-11.2-6.4-20.8 0-8 1.6-14.4 6.4-19.2 4.8-4.8 9.6-8 16-8H160z m0 160c6.4 0 11.2 3.2 16 8 3.2 4.8 6.4 12.8 6.4 20.8s-1.6 16-6.4 20.8c-3.2 4.8-9.6 8-16 8H68.8c-6.4 0-11.2-3.2-16-8s-6.4-12.8-6.4-20.8 1.6-16 6.4-20.8c4.8-4.8 9.6-8 16-8H160z"  horiz-adv-x="1024" />

    


  </font>
</defs>
</svg>
